<mxfile host="app.diagrams.net" modified="2023-05-19T07:07:06.242Z" agent="Mozilla/5.0 (Windows NT 10.0; Win64; x64) AppleWebKit/537.36 (KHTML, like Gecko) Chrome/113.0.0.0 Safari/537.36" etag="lBMrZIDH79UTkJlUjepy" version="21.3.0" type="device">
  <diagram name="第 1 页" id="oL2RJ0jgM8DfPZ23bBHw">
    <mxGraphModel dx="1834" dy="763" grid="0" gridSize="10" guides="1" tooltips="1" connect="1" arrows="1" fold="1" page="0" pageScale="1" pageWidth="827" pageHeight="1169" math="0" shadow="0">
      <root>
        <mxCell id="0" />
        <mxCell id="1" parent="0" />
        <mxCell id="GizYrpFRZmUurfqNu_lv-7" style="edgeStyle=orthogonalEdgeStyle;rounded=0;orthogonalLoop=1;jettySize=auto;html=1;exitX=0.5;exitY=1;exitDx=0;exitDy=0;entryX=0.5;entryY=0;entryDx=0;entryDy=0;" edge="1" parent="1" source="GizYrpFRZmUurfqNu_lv-1" target="GizYrpFRZmUurfqNu_lv-3">
          <mxGeometry relative="1" as="geometry" />
        </mxCell>
        <mxCell id="GizYrpFRZmUurfqNu_lv-1" value="json_read" style="rounded=0;whiteSpace=wrap;html=1;shadow=1;" vertex="1" parent="1">
          <mxGeometry x="-33" y="85" width="120" height="60" as="geometry" />
        </mxCell>
        <mxCell id="GizYrpFRZmUurfqNu_lv-17" style="edgeStyle=orthogonalEdgeStyle;rounded=0;orthogonalLoop=1;jettySize=auto;html=1;exitX=0.5;exitY=1;exitDx=0;exitDy=0;" edge="1" parent="1" source="GizYrpFRZmUurfqNu_lv-2" target="GizYrpFRZmUurfqNu_lv-16">
          <mxGeometry relative="1" as="geometry" />
        </mxCell>
        <mxCell id="GizYrpFRZmUurfqNu_lv-2" value="json_write" style="rounded=0;whiteSpace=wrap;html=1;shadow=1;" vertex="1" parent="1">
          <mxGeometry x="233" y="85" width="120" height="60" as="geometry" />
        </mxCell>
        <mxCell id="GizYrpFRZmUurfqNu_lv-8" style="edgeStyle=orthogonalEdgeStyle;rounded=0;orthogonalLoop=1;jettySize=auto;html=1;exitX=0.5;exitY=1;exitDx=0;exitDy=0;" edge="1" parent="1" source="GizYrpFRZmUurfqNu_lv-3" target="GizYrpFRZmUurfqNu_lv-4">
          <mxGeometry relative="1" as="geometry" />
        </mxCell>
        <mxCell id="GizYrpFRZmUurfqNu_lv-3" value="json_lexer(词法分析)" style="rounded=0;whiteSpace=wrap;html=1;shadow=1;" vertex="1" parent="1">
          <mxGeometry x="-33" y="227" width="120" height="60" as="geometry" />
        </mxCell>
        <mxCell id="GizYrpFRZmUurfqNu_lv-13" style="edgeStyle=orthogonalEdgeStyle;rounded=0;orthogonalLoop=1;jettySize=auto;html=1;exitX=0.5;exitY=1;exitDx=0;exitDy=0;entryX=0.5;entryY=0;entryDx=0;entryDy=0;" edge="1" parent="1" source="GizYrpFRZmUurfqNu_lv-4" target="GizYrpFRZmUurfqNu_lv-6">
          <mxGeometry relative="1" as="geometry" />
        </mxCell>
        <mxCell id="GizYrpFRZmUurfqNu_lv-4" value="json_parser(解析器)" style="rounded=0;whiteSpace=wrap;html=1;shadow=1;" vertex="1" parent="1">
          <mxGeometry x="-33" y="369" width="120" height="60" as="geometry" />
        </mxCell>
        <mxCell id="GizYrpFRZmUurfqNu_lv-6" value="json_value" style="rounded=0;whiteSpace=wrap;html=1;shadow=1;" vertex="1" parent="1">
          <mxGeometry x="-33" y="500" width="120" height="60" as="geometry" />
        </mxCell>
        <mxCell id="GizYrpFRZmUurfqNu_lv-9" value="解析json字符串" style="text;html=1;strokeColor=none;fillColor=none;align=center;verticalAlign=middle;whiteSpace=wrap;rounded=0;" vertex="1" parent="1">
          <mxGeometry x="-25.5" y="38" width="105" height="30" as="geometry" />
        </mxCell>
        <mxCell id="GizYrpFRZmUurfqNu_lv-10" value="创建json字符串" style="text;html=1;strokeColor=none;fillColor=none;align=center;verticalAlign=middle;whiteSpace=wrap;rounded=0;" vertex="1" parent="1">
          <mxGeometry x="240.5" y="38" width="105" height="30" as="geometry" />
        </mxCell>
        <mxCell id="GizYrpFRZmUurfqNu_lv-15" style="edgeStyle=orthogonalEdgeStyle;rounded=0;orthogonalLoop=1;jettySize=auto;html=1;exitX=0;exitY=0.5;exitDx=0;exitDy=0;entryX=1;entryY=0.5;entryDx=0;entryDy=0;" edge="1" parent="1" source="GizYrpFRZmUurfqNu_lv-14" target="GizYrpFRZmUurfqNu_lv-2">
          <mxGeometry relative="1" as="geometry" />
        </mxCell>
        <mxCell id="GizYrpFRZmUurfqNu_lv-14" value="json_value" style="rounded=0;whiteSpace=wrap;html=1;shadow=1;" vertex="1" parent="1">
          <mxGeometry x="452" y="85" width="120" height="60" as="geometry" />
        </mxCell>
        <mxCell id="GizYrpFRZmUurfqNu_lv-16" value="json_string" style="rounded=0;whiteSpace=wrap;html=1;shadow=1;" vertex="1" parent="1">
          <mxGeometry x="233" y="227" width="120" height="60" as="geometry" />
        </mxCell>
      </root>
    </mxGraphModel>
  </diagram>
</mxfile>
